<?xml version="1.0" standalone="no"?>
<!DOCTYPE svg PUBLIC "-//W3C//DTD SVG 20010904//EN"
 "http://www.w3.org/TR/2001/REC-SVG-20010904/DTD/svg10.dtd">
<svg version="1.0" xmlns="http://www.w3.org/2000/svg"
 width="512.000000pt" height="512.000000pt" viewBox="0 0 512.000000 512.000000"
 preserveAspectRatio="xMidYMid meet">
<metadata>
Created by potrace 1.14, written by Peter Selinger 2001-2017
</metadata>
<g transform="translate(0.000000,512.000000) scale(0.100000,-0.100000)"
fill="#000000" stroke="none">
<path d="M2338 4929 c-2 -6 -22 -13 -43 -14 -22 -2 -40 -4 -40 -5 0 -1 -11 -3
-25 -4 -27 -3 -103 -16 -135 -23 -19 -4 -67 -13 -90 -17 -5 -1 -14 -4 -20 -7
-5 -4 -28 -10 -50 -14 -22 -4 -42 -7 -45 -8 -3 0 -16 -6 -29 -13 -14 -7 -28
-11 -33 -8 -4 3 -8 0 -8 -6 0 -6 -4 -9 -10 -5 -5 3 -17 1 -27 -4 -28 -15 -117
-46 -125 -43 -5 1 -8 -2 -8 -8 0 -5 -4 -10 -10 -10 -5 0 -35 -12 -67 -27 -32
-14 -60 -27 -63 -27 -3 -1 -12 -6 -20 -11 -15 -9 -103 -57 -147 -79 -13 -6
-23 -14 -23 -18 0 -5 -6 -8 -14 -8 -8 0 -21 -6 -28 -13 -7 -6 -40 -30 -73 -52
-33 -22 -62 -42 -65 -45 -3 -3 -25 -21 -50 -40 -66 -51 -80 -64 -80 -71 0 -7
205 -219 212 -219 4 0 16 9 64 48 5 5 29 22 52 37 23 15 42 32 42 37 0 5 5 6
10 3 6 -3 10 -1 10 4 0 6 4 11 10 11 5 0 19 8 30 18 11 9 24 17 28 17 4 0 21
10 39 23 17 12 34 22 37 22 3 0 28 13 56 30 27 16 50 27 50 24 0 -3 7 2 16 10
8 9 20 14 25 11 5 -4 9 -1 9 6 0 7 3 9 6 6 4 -4 19 0 33 8 28 16 126 55 151
60 8 2 33 10 55 18 22 8 46 12 54 9 8 -2 11 0 8 5 -3 5 4 10 16 11 28 3 48 7
67 15 8 3 31 8 50 11 19 3 46 8 60 11 14 3 39 7 55 9 17 2 59 7 95 12 36 4
128 7 205 7 163 0 249 -7 355 -28 14 -3 39 -8 55 -10 36 -6 114 -25 135 -33 8
-3 26 -7 40 -9 13 -2 30 -9 37 -15 7 -6 13 -7 13 -3 0 4 7 2 15 -5 8 -7 15
-10 15 -6 0 4 13 0 30 -9 16 -8 33 -16 37 -16 15 -2 38 -12 103 -41 108 -49
135 -63 138 -71 2 -4 8 -5 13 -1 5 3 9 0 9 -5 0 -6 5 -11 11 -11 6 0 30 -14
55 -30 24 -17 44 -28 44 -25 0 4 7 0 15 -7 30 -27 44 -38 50 -38 5 0 80 -55
95 -70 3 -3 28 -23 55 -45 55 -44 235 -220 235 -230 0 -3 11 -16 25 -29 14
-13 25 -28 25 -34 0 -5 7 -12 15 -16 8 -3 15 -11 15 -18 0 -7 9 -19 21 -26 12
-7 18 -16 15 -19 -3 -3 4 -14 16 -24 11 -11 17 -19 12 -19 -5 0 -4 -4 1 -8 15
-11 55 -70 55 -82 0 -5 5 -10 10 -10 6 0 10 -6 10 -14 0 -7 9 -25 21 -40 11
-14 17 -26 12 -26 -4 0 -3 -4 3 -8 13 -9 64 -111 64 -129 0 -7 5 -13 11 -13 5
0 7 -4 4 -10 -3 -5 -1 -10 6 -10 6 0 9 -8 6 -20 -3 -11 -2 -20 1 -20 12 0 68
-148 64 -167 -2 -7 2 -13 8 -13 6 0 10 -6 9 -12 -1 -7 0 -20 3 -28 12 -32 32
-115 44 -190 8 -47 12 -65 14 -65 1 0 3 -20 5 -45 1 -25 3 -45 5 -45 1 0 3
-30 4 -67 1 -37 5 -70 9 -74 3 -4 2 -15 -3 -25 -6 -10 -7 -20 -2 -22 15 -10
-5 -287 -23 -317 -3 -6 -1 -10 5 -10 6 0 8 -5 4 -12 -4 -7 -10 -26 -12 -43 -7
-56 -9 -70 -11 -70 -3 0 -5 -10 -14 -60 -4 -16 -11 -48 -16 -70 -6 -25 -7 -43
-1 -49 6 -6 10 -7 10 -2 0 4 7 0 16 -8 8 -9 20 -14 25 -11 5 4 9 1 9 -4 0 -6
3 -10 8 -9 10 2 145 -64 153 -75 3 -5 9 -8 13 -8 3 1 7 1 9 0 21 -6 34 -5 35
5 1 12 9 48 13 56 1 3 3 10 4 15 2 6 4 13 5 18 1 4 4 12 5 17 1 6 3 11 5 13 2
3 10 39 12 60 1 9 5 17 8 17 3 0 5 14 4 30 -1 17 1 30 5 30 4 0 7 8 8 18 0 9
4 42 8 72 4 30 9 66 10 79 1 14 7 27 14 29 8 3 6 9 -6 19 -15 12 -15 14 -2 10
15 -5 16 16 16 214 0 147 -3 216 -10 212 -6 -4 -8 0 -4 10 3 10 2 17 -3 17 -6
0 -6 9 0 25 6 15 6 25 0 25 -5 0 -7 9 -5 20 2 11 0 22 -5 25 -4 3 -6 14 -3 25
3 11 1 20 -4 20 -5 0 -8 12 -7 28 1 15 -3 33 -9 40 -6 8 -6 12 2 12 7 0 9 5 4
13 -4 6 -8 17 -10 22 -8 39 -13 57 -22 91 -6 21 -8 40 -6 43 3 2 1 9 -4 15 -6
7 -12 24 -15 39 -2 15 -7 31 -11 37 -4 6 -9 22 -11 37 -3 15 -9 32 -14 38 -4
5 -10 21 -12 35 -1 14 -5 27 -8 30 -9 8 -50 114 -50 128 0 6 -4 12 -10 12 -5
0 -10 9 -10 20 0 11 -5 20 -11 20 -5 0 -8 4 -5 9 4 5 3 11 -1 13 -9 3 -53 94
-52 104 0 4 -3 10 -8 13 -5 3 -22 29 -37 56 -16 28 -44 71 -63 98 -19 26 -31
47 -27 47 4 0 -3 8 -14 19 -12 10 -22 21 -22 25 0 15 -149 187 -245 281 -117
116 -140 137 -238 210 -40 30 -80 61 -89 70 -10 8 -20 15 -22 15 -3 0 -41 23
-85 50 -44 28 -84 50 -88 50 -5 0 -19 9 -33 20 -14 11 -32 20 -41 20 -9 0 -22
7 -29 15 -6 8 -15 14 -18 13 -4 -1 -33 10 -64 25 -31 15 -64 27 -72 27 -9 0
-16 5 -16 11 0 5 -4 7 -10 4 -5 -3 -10 -1 -10 4 0 6 -3 10 -7 10 -5 -1 -10 0
-13 1 -3 1 -12 3 -20 5 -8 2 -51 15 -95 30 -44 15 -88 29 -97 31 -10 2 -28 6
-40 10 -13 3 -32 7 -43 9 -11 3 -31 7 -45 11 -14 3 -38 7 -55 10 -16 3 -41 8
-55 11 -14 3 -40 6 -57 7 -18 0 -33 4 -33 7 0 3 -11 5 -25 4 -14 -2 -25 1 -25
6 0 6 -6 7 -12 3 -17 -11 -48 -12 -42 -2 3 4 0 9 -5 9 -6 1 -17 2 -23 3 -7 1
-18 -2 -25 -7 -7 -5 -18 -5 -25 0 -20 12 -148 12 -141 -1 3 -6 0 -5 -8 2 -7 6
-24 12 -37 12 -16 0 -21 -4 -16 -12 6 -10 4 -10 -7 0 -16 15 -33 16 -23 1 5
-8 1 -8 -14 0 -25 14 -43 14 -22 1 13 -9 13 -10 0 -10 -9 0 -22 6 -29 13 -10
10 -11 8 -6 -8 6 -19 6 -19 -8 -2 -10 12 -16 14 -19 6z"/>
<path d="M2360 4580 c0 -3 -19 -6 -43 -8 -23 -2 -54 -4 -69 -5 -16 -1 -28 -5
-28 -9 0 -3 -8 -5 -17 -3 -10 1 -26 -2 -35 -7 -13 -6 -18 -5 -18 4 0 9 -2 10
-8 1 -4 -6 -20 -14 -37 -17 -16 -3 -48 -10 -70 -16 -22 -6 -47 -12 -55 -14
-40 -11 -178 -60 -228 -82 -90 -40 -106 -48 -114 -59 -4 -5 -8 -6 -8 -1 0 5
-8 2 -17 -7 -10 -8 -22 -16 -26 -16 -19 0 -226 -135 -284 -184 -11 -11 -25
-20 -29 -21 -4 0 -25 -18 -45 -38 -21 -21 -40 -38 -42 -38 -12 0 -145 -141
-207 -219 -19 -24 -40 -48 -45 -55 -25 -28 -115 -165 -115 -175 0 -6 -3 -11
-8 -11 -4 0 -16 -17 -27 -37 -11 -21 -24 -41 -28 -44 -5 -3 -8 -8 -7 -10 1 -2
-15 -39 -34 -82 -20 -42 -37 -83 -39 -90 -1 -6 -5 -15 -10 -18 -4 -3 -9 -15
-12 -27 -2 -12 -6 -26 -9 -30 -3 -5 30 -19 72 -32 42 -13 83 -28 89 -33 18
-13 40 8 49 46 4 18 7 36 6 40 -2 5 2 6 8 2 5 -3 10 -1 10 6 0 13 61 141 71
149 3 3 9 15 13 28 4 12 12 22 17 22 5 0 9 6 9 13 0 7 8 22 19 33 10 11 22 30
25 42 4 12 12 20 17 17 5 -4 9 3 9 14 0 10 3 21 8 23 4 2 18 16 31 33 46 60
117 139 171 191 100 96 160 147 160 138 0 -4 9 4 20 17 10 13 19 20 20 15 0
-5 11 3 25 18 13 14 26 26 29 26 2 0 40 22 84 49 44 28 83 47 86 44 3 -4 6 -2
6 4 0 11 57 37 73 34 4 0 7 3 7 8 0 7 31 20 48 21 1 0 16 7 32 15 16 8 33 16
37 16 5 0 14 5 21 11 7 6 15 8 18 5 4 -3 24 3 45 14 21 10 42 19 46 18 5 -1
10 0 13 1 6 2 10 3 100 25 80 20 114 26 162 28 21 1 38 4 38 7 0 3 21 6 48 7
26 0 67 3 92 6 25 2 55 0 68 -4 12 -5 22 -5 22 -1 0 4 22 7 50 7 27 0 50 -3
50 -6 0 -3 12 -5 27 -3 15 1 33 -2 39 -7 8 -7 14 -6 19 1 3 6 11 7 18 3 6 -4
23 -7 37 -8 22 -2 68 -10 125 -22 11 -2 33 -7 49 -9 16 -3 40 -10 53 -15 13
-5 26 -9 28 -9 6 0 39 63 40 75 0 6 8 25 18 43 10 17 14 32 10 32 -4 0 -2 5 5
12 19 19 14 37 -8 33 -11 -2 -20 0 -20 5 0 5 -9 7 -20 5 -11 -2 -20 0 -20 4 0
4 -31 13 -69 20 -99 18 -106 19 -106 22 0 2 -43 7 -87 10 -21 1 -38 5 -38 9 0
4 -7 7 -15 7 -8 0 -15 -4 -15 -9 0 -5 -6 -6 -12 -1 -14 8 -368 11 -368 3z"/>
<path d="M2449 4140 c-13 -3 -36 -5 -51 -4 -16 2 -28 0 -28 -4 0 -4 -20 -7
-45 -7 -25 1 -45 -2 -45 -5 0 -4 -6 -7 -12 -7 -58 -1 -287 -67 -299 -86 -4 -5
-12 -6 -18 -3 -6 4 -11 2 -11 -4 0 -6 -4 -9 -9 -6 -5 3 -14 -1 -21 -9 -7 -8
-17 -12 -22 -9 -6 4 -13 3 -17 -2 -3 -5 -24 -18 -46 -29 -22 -10 -52 -28 -67
-38 -16 -10 -28 -15 -28 -10 0 4 -5 0 -11 -9 -5 -10 -15 -18 -20 -18 -37 0
-300 -235 -383 -342 -16 -21 -34 -35 -39 -31 -6 3 -7 1 -3 -6 5 -7 -7 -30 -28
-55 -19 -24 -33 -46 -30 -48 2 -3 -2 -11 -11 -18 -8 -7 -15 -19 -15 -26 0 -8
-4 -14 -9 -14 -5 0 -15 -16 -22 -35 -7 -19 -17 -35 -22 -35 -4 0 -6 -4 -2 -9
3 -6 -3 -14 -12 -20 -10 -6 -15 -11 -11 -11 4 0 -3 -24 -16 -52 -35 -82 -39
-92 -38 -100 3 -15 -16 -8 -22 7 -3 8 -1 15 5 15 6 0 7 5 4 10 -3 6 -2 10 4
10 6 0 15 17 21 38 6 20 19 53 29 72 11 19 28 53 39 75 48 99 153 241 256 346
65 66 65 59 1 123 -11 12 -32 35 -46 51 -24 29 -49 43 -49 27 0 -4 -30 -40
-67 -79 -84 -88 -99 -107 -171 -213 -31 -47 -60 -87 -63 -90 -8 -7 -22 -44
-21 -52 1 -5 -2 -8 -7 -8 -8 0 -111 -218 -115 -244 -1 -8 -7 -20 -14 -28 -6
-8 -9 -17 -6 -20 3 -4 -1 -19 -9 -35 -8 -15 -12 -34 -9 -42 2 -8 0 -11 -5 -8
-5 3 -10 -5 -11 -19 -5 -54 -7 -64 -12 -64 -3 0 -7 -10 -7 -22 -2 -40 -15 -93
-24 -105 -7 -7 -6 -14 1 -18 6 -3 7 -11 4 -17 -9 -14 -15 -71 -17 -150 -1 -38
-6 -68 -10 -68 -4 0 -3 -9 3 -20 8 -14 8 -20 0 -20 -6 0 -9 -4 -6 -8 2 -4 6
-37 7 -72 2 -36 7 -71 12 -77 6 -9 5 -13 -2 -13 -7 0 -9 -5 -5 -12 4 -7 8 -24
8 -38 1 -14 5 -31 10 -39 7 -10 6 -12 -3 -6 -10 6 -11 3 -2 -14 6 -11 12 -41
13 -66 1 -25 5 -45 9 -45 4 0 10 -17 13 -37 8 -49 14 -78 16 -78 1 0 3 -7 5
-15 7 -36 66 -194 76 -206 6 -8 9 -14 5 -14 -5 0 58 -126 82 -164 4 -6 7 -13
8 -16 2 -14 40 -70 47 -70 5 0 5 -4 2 -10 -3 -5 -1 -10 4 -10 6 0 11 -6 11
-14 0 -8 3 -16 8 -18 4 -2 27 -30 51 -63 25 -33 53 -67 63 -76 10 -9 18 -19
18 -23 0 -6 160 -165 205 -203 15 -13 30 -23 35 -23 5 0 10 -4 12 -8 4 -11
112 -92 122 -92 4 0 22 -11 39 -24 41 -30 212 -116 232 -116 8 0 15 -4 15 -10
0 -5 19 -15 43 -21 56 -17 63 -19 115 -40 13 -5 32 -9 42 -9 11 0 20 -4 20 -8
0 -7 24 -12 68 -15 6 0 12 -3 12 -7 0 -3 10 -7 23 -8 37 -3 92 -10 92 -12 0
-3 40 -8 95 -12 25 -3 52 -8 59 -13 9 -5 12 -4 7 3 -7 12 25 9 45 -4 8 -4 9 1
4 16 -4 12 -8 28 -10 34 -1 6 -5 18 -8 26 -4 8 -8 26 -9 40 -2 14 -7 31 -11
38 -5 6 -6 16 -3 21 10 16 -40 39 -95 45 -73 7 -120 16 -141 27 -10 5 -18 8
-18 5 0 -3 -15 0 -32 5 -18 6 -43 12 -55 15 -12 2 -35 9 -50 16 -16 6 -30 12
-33 12 -3 1 -11 5 -17 9 -7 5 -13 5 -13 1 0 -3 -11 1 -25 10 -14 9 -25 14 -25
11 0 -3 -10 0 -23 7 -12 7 -25 11 -29 10 -5 -1 -8 3 -8 9 0 5 -4 8 -9 5 -5 -4
-11 -1 -13 4 -2 6 -10 12 -18 13 -33 6 -221 128 -303 197 -51 43 -178 172
-217 220 -25 30 -48 57 -52 58 -5 2 -8 10 -8 18 0 8 -7 17 -15 20 -8 4 -15 14
-15 24 0 10 -7 20 -15 24 -8 3 -15 12 -15 19 0 8 -7 20 -15 27 -8 7 -12 16 -9
21 3 5 1 9 -4 9 -9 0 -84 155 -118 245 -4 11 -6 23 -6 28 1 4 -3 7 -9 7 -5 0
-8 4 -5 9 3 5 -1 25 -9 45 -8 20 -12 36 -8 36 4 0 2 5 -5 12 -7 7 -12 25 -12
40 0 15 -3 28 -7 28 -5 0 -8 10 -9 23 0 12 -4 47 -8 77 -4 30 -10 71 -12 90
-3 19 -6 41 -9 48 -2 6 1 12 8 12 7 0 8 3 2 8 -8 6 -13 172 -5 192 1 3 2 28 3
57 1 28 5 54 9 58 4 4 3 18 -2 31 -6 16 -5 26 3 31 7 4 13 19 14 33 1 23 9 68
13 80 4 11 7 26 8 48 2 21 32 33 32 12 0 -5 -5 -10 -11 -10 -6 0 -9 -12 -7
-27 3 -28 14 -32 95 -33 24 -1 43 -5 43 -11 0 -6 6 -7 13 -2 6 4 19 6 28 5 11
-2 18 7 22 25 3 15 11 42 18 58 7 17 13 36 15 43 1 7 12 33 23 58 12 24 21 48
21 54 0 5 4 10 10 10 5 0 9 3 8 8 -4 12 64 132 75 132 6 0 7 3 4 6 -5 6 25 58
43 74 3 3 17 21 31 40 44 58 79 91 89 85 9 -5 -17 -39 -77 -102 -13 -13 -23
-27 -23 -31 0 -4 -11 -20 -25 -35 -14 -15 -23 -27 -21 -27 3 0 -11 -26 -31
-57 -20 -32 -36 -63 -36 -70 0 -7 -4 -13 -8 -13 -6 0 -10 -10 -18 -45 -1 -5
-10 -18 -18 -27 -9 -10 -13 -18 -8 -18 4 0 2 -7 -5 -15 -6 -8 -9 -19 -5 -25 3
-5 2 -10 -3 -10 -5 0 -17 -28 -27 -62 -10 -35 -21 -67 -24 -73 -3 -5 -6 -19
-7 -30 -1 -11 -5 -31 -9 -45 -4 -14 -7 -34 -6 -45 0 -11 -5 -23 -12 -27 -9 -6
-9 -8 1 -8 7 0 10 -5 6 -11 -4 -6 -8 -25 -9 -41 -2 -16 -5 -31 -8 -35 -3 -3
-2 -16 3 -29 5 -13 6 -24 2 -24 -4 0 -7 -28 -6 -62 1 -35 3 -63 4 -63 1 0 3
-20 4 -45 1 -25 5 -51 10 -58 4 -7 2 -12 -4 -12 -6 0 -8 -4 -5 -10 9 -15 28
-103 29 -137 1 -13 4 -23 9 -23 4 0 7 -9 7 -20 0 -11 4 -20 8 -20 5 0 8 -10 7
-22 -2 -21 9 -51 40 -111 9 -16 13 -33 9 -38 -3 -5 -2 -9 3 -9 4 0 17 -20 28
-45 11 -25 23 -45 28 -45 4 0 6 -4 3 -9 -3 -5 1 -14 9 -21 8 -7 12 -16 9 -21
-3 -5 -1 -9 4 -9 5 0 17 -16 28 -35 10 -19 23 -35 28 -35 5 0 7 -3 4 -6 -4 -3
1 -14 10 -24 9 -10 22 -25 27 -32 37 -48 64 -76 69 -71 3 4 6 1 6 -6 0 -18
107 -119 180 -171 19 -13 41 -30 47 -36 7 -7 31 -20 53 -31 22 -10 40 -24 40
-32 0 -8 3 -12 6 -9 3 4 38 -10 77 -29 40 -20 78 -36 85 -36 6 0 12 -5 12 -10
0 -6 3 -8 6 -4 4 3 19 0 34 -8 15 -8 30 -11 34 -8 3 4 6 2 6 -3 0 -5 12 -11
26 -12 14 -1 31 -5 37 -9 13 -8 24 -11 72 -18 17 -2 44 -7 60 -11 17 -4 47 -7
68 -7 20 -1 37 -3 37 -7 0 -5 83 -11 140 -9 30 1 75 6 75 9 0 1 12 3 26 4 14
1 26 -4 26 -10 0 -6 -9 -9 -20 -6 -15 4 -18 2 -12 -9 7 -11 6 -12 -6 -3 -13 9
-25 11 -46 4 -10 -3 -50 -1 -143 5 -134 9 -149 10 -156 18 -12 12 -36 8 -29
-5 4 -7 -1 -4 -9 6 -9 11 -16 16 -17 10 0 -5 -2 -18 -4 -29 -2 -11 -6 -31 -9
-45 -2 -14 -5 -25 -6 -25 -1 0 -3 -11 -6 -25 -2 -14 -6 -35 -9 -48 -6 -23 2
-29 40 -35 11 -1 26 -7 34 -11 10 -7 12 -6 6 4 -6 10 -4 11 6 4 14 -8 59 -14
134 -17 22 -1 43 -6 47 -12 5 -7 8 -7 8 0 0 6 47 10 118 11 64 0 135 4 157 8
22 4 51 9 65 11 14 2 34 6 45 9 11 2 30 5 43 5 13 1 21 5 18 10 -3 4 6 7 19 5
14 -1 27 2 31 7 3 5 9 7 14 4 5 -3 11 -1 15 5 4 6 10 8 15 5 5 -3 11 -1 15 5
3 5 12 10 20 10 8 0 26 5 42 12 15 6 30 12 33 12 3 1 11 5 18 9 6 5 12 5 12 0
0 -4 4 -3 8 2 4 6 27 19 52 30 44 19 220 121 230 134 3 3 21 18 40 33 19 14
45 36 58 47 12 12 22 19 22 16 0 -8 158 151 193 195 16 19 36 47 45 63 9 15
20 27 24 27 4 0 8 5 8 10 0 6 9 20 20 32 11 12 20 27 20 34 0 6 7 15 16 18 9
3 14 13 11 20 -3 8 0 17 8 19 7 3 16 19 20 35 3 17 13 33 22 36 9 4 13 9 10
12 -3 3 5 26 18 50 13 24 18 41 12 37 -7 -3 -4 2 5 13 9 10 17 24 18 29 2 6 7
21 12 35 5 14 12 36 14 49 3 13 9 32 14 41 5 10 6 20 3 24 -3 3 -1 6 5 6 6 0
9 6 6 14 -3 8 -1 17 5 20 6 4 8 13 4 21 -3 8 -1 15 3 15 5 0 9 12 10 28 0 15
4 45 9 67 4 22 8 55 9 73 0 17 3 32 6 32 3 0 5 72 5 159 0 88 -3 157 -7 155
-4 -3 -5 5 -3 17 2 12 0 30 -6 40 -7 14 -6 19 3 19 9 0 9 3 -2 10 -12 8 -12
10 -1 10 10 0 11 3 2 14 -13 15 -19 42 -23 93 -1 18 -5 33 -9 33 -4 0 -8 8 -8
18 0 17 -4 35 -14 62 -36 96 -62 166 -62 170 -4 23 -18 50 -27 50 -5 0 -8 7
-4 15 3 8 1 15 -4 15 -6 0 -10 9 -10 21 0 11 -4 17 -10 14 -9 -5 -12 8 -9 31
0 4 -3 10 -8 13 -10 8 -53 68 -53 76 0 11 -93 132 -147 191 -18 20 -33 41 -33
47 0 5 -3 8 -6 5 -6 -7 -54 39 -54 52 0 6 -4 10 -8 10 -5 0 -20 9 -33 21 -13
12 -41 35 -63 52 -21 18 -44 37 -51 44 -7 7 -15 9 -19 6 -3 -3 -8 2 -12 11 -3
9 -12 16 -20 16 -8 0 -14 5 -14 10 0 6 -7 10 -15 10 -8 0 -15 4 -15 8 0 5 -16
14 -35 22 -19 8 -35 16 -35 19 0 8 -63 36 -72 33 -5 -1 -8 2 -8 8 0 5 -9 10
-20 10 -11 0 -20 5 -20 10 0 6 -9 10 -19 10 -11 0 -21 4 -23 9 -1 5 -14 11
-28 13 -14 1 -27 5 -30 8 -7 7 -71 31 -90 34 -8 1 -22 5 -30 9 -8 3 -28 8 -45
9 -16 2 -32 6 -35 9 -3 4 -21 8 -40 10 -19 2 -39 5 -45 8 -5 3 -32 7 -60 9
-27 2 -55 8 -62 13 -7 7 -12 6 -15 -2 -3 -8 -9 -9 -18 -4 -17 10 -185 14 -221
5z m84 -203 c17 10 51 10 59 -1 4 -6 13 -4 22 3 9 8 16 9 16 4 0 -5 24 -10 53
-11 28 -1 63 -4 77 -8 14 -3 39 -7 55 -9 17 -2 30 -4 30 -5 0 -2 13 -5 51 -14
46 -10 110 -30 119 -37 6 -4 24 -10 40 -13 15 -3 32 -11 37 -18 4 -7 8 -10 8
-5 0 4 13 1 30 -8 16 -8 31 -15 32 -13 2 1 22 -11 45 -25 24 -15 47 -27 53
-27 5 0 10 -4 10 -10 0 -5 7 -10 15 -10 8 0 15 -4 15 -10 0 -5 6 -10 13 -10 7
0 23 -9 35 -20 12 -11 24 -20 28 -20 4 0 15 -10 25 -22 11 -11 19 -18 19 -14
0 4 11 -3 23 -16 13 -13 44 -41 68 -64 39 -36 95 -96 140 -151 26 -32 93 -135
114 -175 11 -21 23 -38 28 -38 4 0 6 -4 2 -9 -3 -5 2 -16 11 -25 8 -9 12 -20
9 -26 -3 -5 -1 -10 5 -10 7 0 10 -7 6 -15 -3 -8 -1 -15 4 -15 5 0 15 -18 21
-40 7 -22 15 -40 19 -40 4 0 6 -11 5 -25 -2 -14 1 -25 6 -25 6 0 8 -4 4 -9 -3
-5 -1 -12 5 -16 6 -4 8 -10 5 -15 -3 -5 -1 -17 4 -27 13 -26 32 -123 25 -134
-3 -5 -2 -9 3 -9 4 0 8 -17 8 -38 0 -20 1 -41 4 -46 8 -17 8 -97 -1 -102 -4
-3 -5 -11 -1 -17 9 -14 12 -117 4 -117 -3 0 -6 -22 -6 -50 1 -27 -3 -50 -6
-50 -4 0 -6 -12 -5 -27 2 -16 1 -32 -2 -38 -4 -5 -7 -14 -8 -20 -8 -40 -12
-55 -24 -95 -8 -25 -14 -48 -16 -52 -1 -5 -3 -10 -4 -13 -1 -3 -4 -9 -5 -15
-1 -5 -4 -13 -5 -17 -1 -5 -2 -11 -1 -15 0 -5 -4 -8 -9 -8 -6 0 -10 -6 -9 -12
3 -14 -31 -90 -44 -99 -5 -3 -8 -9 -8 -13 1 -12 -43 -96 -51 -96 -4 0 -8 -5
-8 -11 0 -18 -76 -121 -132 -180 -14 -15 -23 -30 -20 -33 3 -3 -2 -6 -11 -6
-10 0 -16 -3 -15 -7 4 -11 -39 -53 -46 -46 -3 4 -6 0 -6 -7 0 -13 -14 -27 -66
-67 -99 -76 -139 -103 -151 -103 -7 0 -13 -5 -13 -11 0 -5 -4 -7 -10 -4 -5 3
-10 3 -10 -2 0 -4 -14 -16 -30 -25 -25 -14 -30 -15 -30 -3 0 14 12 19 33 16 4
0 7 3 7 8 0 5 18 17 40 27 22 10 40 21 40 26 0 4 6 8 14 8 8 0 16 3 18 8 2 4
31 28 65 54 34 25 59 49 55 53 -4 4 -2 5 4 3 13 -4 84 72 84 90 0 7 -4 11 -9
8 -5 -4 -11 -3 -13 2 -1 4 -23 23 -48 41 -25 19 -50 41 -57 49 -14 17 -24 12
-91 -48 -76 -68 -106 -90 -121 -90 -8 0 -11 -3 -7 -7 3 -4 -8 -14 -26 -24
-135 -69 -158 -81 -164 -90 -3 -5 -10 -7 -15 -3 -5 3 -17 0 -26 -8 -9 -7 -18
-12 -20 -10 -9 6 -24 1 -19 -7 4 -5 -2 -8 -11 -6 -10 1 -22 -1 -28 -5 -17 -13
-133 -41 -177 -43 -16 -1 -28 -4 -28 -8 0 -3 -27 -5 -59 -4 -37 1 -58 -3 -54
-8 3 -6 1 -7 -5 -3 -22 13 -52 15 -52 3 0 -8 -3 -8 -8 -2 -7 10 -20 12 -94 17
-21 2 -38 6 -38 9 0 6 -10 8 -55 11 -14 1 -25 5 -25 10 0 4 -6 5 -14 2 -8 -3
-17 -1 -20 5 -4 6 -13 8 -21 4 -8 -3 -15 0 -15 7 0 7 -7 10 -15 6 -8 -3 -21 1
-29 9 -7 8 -16 12 -18 9 -3 -2 -27 6 -54 18 -27 12 -51 23 -54 23 -24 4 -50
18 -50 26 0 6 -4 7 -10 4 -5 -3 -10 -1 -10 4 0 6 -6 11 -14 11 -7 0 -19 7 -26
15 -7 9 -15 13 -17 11 -5 -5 -94 61 -105 78 -4 6 -8 7 -8 3 0 -5 -15 6 -34 25
-18 18 -46 45 -62 60 -16 14 -42 43 -59 63 -16 20 -35 43 -42 50 -38 40 -130
204 -165 295 -6 14 -14 33 -20 43 -5 10 -6 22 -3 27 3 4 0 14 -7 22 -7 7 -14
22 -15 33 0 11 -4 31 -7 45 -12 51 -20 107 -20 148 0 23 -5 42 -9 42 -5 0 -5
6 2 13 8 10 7 17 -1 25 -8 8 -8 15 2 27 8 10 9 15 1 15 -13 0 -10 22 4 32 6 5
5 8 -3 8 -8 0 -10 5 -5 13 4 6 8 35 9 62 1 28 3 51 4 53 1 1 4 11 5 22 1 11 4
23 5 28 1 4 2 10 1 14 0 4 6 25 13 46 8 22 12 43 9 46 -4 3 -1 6 6 6 7 0 10 4
7 9 -4 5 3 30 14 55 11 26 20 50 21 54 4 17 35 77 42 83 5 3 8 8 7 10 -4 8 23
59 31 59 4 0 11 10 14 21 24 73 222 279 338 348 20 12 37 27 37 32 0 5 3 8 8
7 4 -1 32 11 62 27 30 16 57 30 60 30 3 1 21 9 40 17 19 9 38 14 42 12 5 -3 8
0 8 6 0 6 3 9 8 7 4 -3 18 0 32 6 31 13 49 17 77 20 13 1 23 6 23 11 0 5 2 7
5 4 3 -3 33 0 68 7 34 6 79 11 100 11 20 -1 37 3 37 7 0 7 12 2 41 -15 3 -1
13 3 22 11 14 11 17 11 17 1 0 -42 17 26 25 100 3 19 6 49 8 66 l4 31 -63 -1
c-35 -1 -64 3 -64 7 0 5 -5 5 -11 1 -6 -3 -32 -8 -57 -11 -99 -9 -118 -12
-147 -21 -16 -5 -36 -7 -42 -5 -7 3 -13 0 -13 -7 0 -6 -3 -9 -8 -7 -4 3 -38
-5 -77 -18 -38 -13 -72 -22 -76 -19 -4 2 -9 1 -11 -3 -4 -11 -75 -43 -93 -43
-8 0 -15 -5 -15 -11 0 -5 -4 -7 -10 -4 -5 3 -10 1 -10 -4 0 -6 -6 -11 -13 -11
-7 0 -56 -29 -109 -64 -85 -56 -132 -94 -199 -158 -10 -9 -20 -14 -23 -11 -3
4 -6 -1 -6 -10 0 -10 -7 -17 -15 -17 -24 0 -18 11 35 61 28 26 50 46 50 44 0
-2 13 9 29 24 15 14 57 45 92 69 35 23 69 45 74 50 19 14 170 87 178 84 4 -1
7 2 7 6 0 5 7 9 15 10 8 1 22 3 30 4 8 1 15 5 15 9 0 6 10 9 88 25 17 3 32 11
32 16 0 6 7 7 16 4 9 -3 21 -3 27 1 7 4 21 8 32 9 11 2 38 5 60 9 22 3 66 8
98 10 32 2 61 6 65 10 4 3 8 1 10 -4 2 -6 9 -8 15 -4z m-1483 -876 c0 -6 -5
-13 -10 -16 -6 -4 -8 -10 -5 -15 3 -4 -2 -13 -10 -20 -12 -10 -15 -10 -15 2 0
8 3 18 8 22 4 4 8 12 8 17 3 17 4 19 14 19 6 0 10 -4 10 -9z m2120 -1776 c-7
-8 -16 -13 -20 -10 -5 3 -10 2 -12 -3 -1 -4 -33 -19 -70 -33 -48 -19 -65 -23
-61 -12 3 7 8 12 10 9 3 -3 23 4 44 14 21 11 45 20 53 20 8 0 20 8 25 18 8 13
11 14 11 2 0 -12 3 -11 11 3 6 10 13 16 16 13 3 -3 0 -12 -7 -21z m-177 -64
c-3 -11 -13 -18 -26 -17 -12 0 -21 -3 -20 -9 1 -5 -13 -11 -30 -11 -36 -2 -57
-7 -72 -15 -5 -4 -19 -5 -30 -3 -11 1 -23 -2 -27 -9 -6 -9 -8 -9 -8 1 0 7 -5
10 -12 6 -6 -4 -8 -3 -5 3 9 14 47 23 47 11 0 -5 6 -6 13 -1 15 9 59 18 110
22 5 1 6 5 2 10 -3 6 3 8 14 6 11 -2 25 3 32 11 15 19 18 18 12 -5z m-276 -73
c-3 -8 -6 -5 -6 6 -1 11 2 17 5 13 3 -3 4 -12 1 -19z m33 12 c0 -5 -4 -10 -10
-10 -5 0 -10 5 -10 10 0 6 5 10 10 10 6 0 10 -4 10 -10z"/>
<path d="M2488 3230 c-87 -89 -158 -166 -158 -172 0 -6 -3 -9 -6 -6 -3 3 -49
-39 -102 -94 -53 -55 -163 -167 -244 -249 -82 -81 -148 -153 -148 -159 0 -6
32 -41 70 -79 39 -37 67 -71 63 -74 -3 -4 0 -7 8 -7 8 0 58 -45 112 -99 53
-55 97 -97 97 -94 0 2 18 -17 40 -42 22 -25 40 -44 40 -42 0 3 90 -85 200
-194 110 -109 203 -199 207 -199 3 0 3 3 0 7 -4 3 -1 13 6 21 6 9 8 13 2 10
-7 -4 -10 107 -11 326 l0 332 -25 24 c-14 14 -43 41 -65 60 -21 20 -39 42 -39
50 0 8 23 38 51 67 28 29 49 54 47 57 -3 2 4 9 15 15 15 8 19 19 16 43 -8 76
-10 177 -2 172 4 -3 5 1 3 9 -12 29 -12 227 -1 227 7 0 8 3 0 8 -13 9 -13 224
1 234 6 5 4 8 -4 8 -8 0 -86 -72 -173 -160z"/>
<path d="M2727 3273 c8 -388 8 -443 -2 -447 -5 -2 -4 -5 4 -5 11 -1 11 -4 1
-16 -7 -8 -8 -15 -3 -15 5 0 8 -20 7 -45 -2 -44 1 -48 68 -116 l70 -69 -30
-34 c-17 -19 -33 -32 -36 -29 -3 4 -6 1 -6 -5 0 -6 -14 -24 -32 -41 -30 -28
-31 -33 -31 -100 1 -38 4 -75 8 -81 3 -5 1 -10 -5 -10 -8 0 -8 -6 0 -20 7 -12
7 -20 1 -20 -10 0 -7 -32 4 -50 3 -6 2 -10 -4 -10 -6 0 -6 -11 -1 -30 5 -16 5
-32 2 -34 -4 -2 -5 -52 -2 -111 3 -59 2 -109 -3 -112 -4 -2 -4 -9 -1 -15 4 -6
7 -37 6 -69 -1 -65 12 -84 29 -45 7 14 15 24 18 23 3 -2 47 39 97 90 51 51 90
93 89 93 -2 0 68 72 156 160 87 88 159 165 159 171 0 7 3 9 7 6 3 -4 16 7 28
23 12 16 25 27 28 23 4 -3 7 1 7 10 0 9 3 16 8 15 10 -3 81 70 74 77 -3 3 2 5
12 5 9 0 15 3 13 8 -2 4 4 15 15 25 10 9 18 15 18 12 0 -3 6 0 14 7 8 7 12 16
9 21 -2 4 3 7 12 7 9 0 14 4 11 9 -3 5 1 11 9 15 8 3 15 10 15 15 0 5 -63 72
-141 148 -77 76 -264 261 -416 411 -152 149 -279 272 -282 272 -3 0 -5 -53 -4
-117z"/>
<path d="M697 4030 c-19 -22 -32 -40 -29 -40 4 0 0 -6 -8 -13 -20 -16 -60 -74
-60 -86 0 -5 -7 -11 -15 -15 -8 -3 -15 -12 -15 -21 0 -8 -4 -15 -10 -15 -5 0
-10 -5 -10 -11 0 -6 -8 -23 -19 -37 -10 -15 -33 -53 -49 -84 -17 -31 -36 -65
-41 -75 -28 -51 -61 -126 -61 -139 0 -8 -4 -14 -10 -14 -5 0 -10 -6 -10 -12 0
-7 -11 -40 -24 -73 -14 -32 -22 -63 -20 -67 3 -4 0 -8 -6 -8 -6 0 -8 -4 -5
-10 3 -5 1 -10 -5 -10 -6 0 -8 -4 -5 -10 3 -5 3 -16 -2 -22 -4 -7 -8 -15 -9
-18 0 -3 -7 -25 -14 -50 -7 -25 -14 -47 -15 -50 0 -3 -5 -23 -10 -45 -10 -47
-12 -54 -15 -57 -1 -2 -3 -14 -5 -28 -1 -14 -5 -38 -9 -55 -3 -16 -8 -45 -10
-63 -3 -18 -8 -37 -11 -42 -3 -6 -1 -10 6 -10 7 0 8 -4 2 -12 -9 -13 -13 -38
-16 -105 -1 -17 -5 -35 -9 -39 -4 -4 -3 -13 3 -20 7 -9 7 -19 0 -33 -7 -13 -8
-22 -1 -26 5 -3 10 -12 10 -18 0 -8 -3 -7 -9 2 -6 9 -9 1 -9 -25 0 -21 5 -45
11 -53 9 -12 9 -13 0 -7 -9 5 -12 0 -11 -18 1 -15 6 -26 11 -26 5 0 4 -6 -2
-14 -8 -10 -9 -16 -1 -21 5 -3 10 -12 10 -18 0 -8 -3 -7 -9 2 -7 10 -9 7 -8
-12 1 -14 5 -23 9 -20 11 6 10 -5 -3 -29 -8 -16 -8 -19 1 -13 9 6 11 -4 9 -38
-2 -25 0 -43 4 -40 4 2 7 -10 7 -29 0 -29 5 -74 10 -88 1 -3 2 -9 1 -13 -1 -5
3 -25 8 -45 6 -20 12 -48 15 -62 3 -14 9 -40 15 -58 5 -18 10 -36 11 -40 3
-20 12 -59 18 -72 3 -8 6 -19 7 -25 0 -5 4 -16 8 -22 5 -7 6 -17 3 -22 -4 -5
-3 -11 1 -13 7 -3 40 -84 48 -118 2 -8 15 -40 30 -70 76 -158 102 -209 128
-247 15 -24 24 -43 20 -43 -4 0 -3 -4 3 -8 5 -4 20 -24 33 -45 13 -21 30 -44
38 -52 8 -8 12 -15 8 -15 -4 0 0 -7 7 -15 29 -32 39 -45 33 -45 -3 0 3 -8 13
-18 9 -11 33 -39 52 -63 95 -119 305 -329 330 -329 6 0 8 -5 5 -10 -3 -6 -1
-10 5 -10 6 0 17 -6 24 -12 7 -7 25 -22 41 -33 15 -11 39 -29 54 -40 14 -11
46 -34 71 -50 25 -17 47 -32 50 -35 3 -3 16 -11 30 -18 14 -6 32 -16 40 -22
41 -28 182 -100 195 -100 8 0 15 -5 15 -11 0 -5 4 -8 9 -4 5 3 12 1 16 -5 4
-6 10 -8 15 -5 5 3 13 -2 18 -11 5 -9 11 -14 13 -13 3 3 96 -27 149 -48 8 -4
18 -7 23 -8 4 -2 9 -4 12 -5 3 -1 8 -3 13 -4 4 -2 27 -8 52 -15 25 -7 50 -14
55 -15 6 -1 16 -5 23 -9 6 -5 12 -5 12 -1 0 3 7 1 15 -6 12 -10 15 -10 15 0 0
9 4 9 13 2 7 -6 26 -13 42 -16 17 -2 30 -5 30 -6 0 -1 17 -4 39 -5 21 -2 43
-8 49 -14 7 -7 16 -7 29 0 11 6 18 6 18 0 0 -5 16 -9 36 -9 20 0 40 -6 45 -14
6 -9 9 -10 9 0 0 6 5 12 11 12 5 0 7 -6 3 -12 -5 -8 0 -7 11 2 11 9 16 10 11
3 -9 -17 6 -17 23 -1 11 10 13 10 7 1 -6 -10 17 -13 97 -13 108 0 124 4 106
27 -8 9 -8 13 0 13 7 0 8 8 2 23 -4 12 -7 30 -6 40 2 9 -1 17 -6 17 -5 0 -4
11 1 25 5 14 6 25 2 25 -4 0 -8 30 -10 67 -2 37 -5 71 -8 75 -3 5 -21 7 -40 5
-20 -3 -34 0 -34 6 0 7 -4 7 -11 0 -6 -6 -21 -9 -33 -5 -11 4 -39 7 -61 7 -22
0 -43 4 -47 10 -5 6 -8 5 -8 -3 0 -9 -5 -10 -17 -4 -10 5 -36 10 -57 11 -22 1
-43 4 -48 7 -5 3 -28 7 -50 9 -23 2 -44 7 -47 12 -3 4 -15 8 -26 7 -11 0 -30
3 -43 8 -25 9 -70 19 -89 20 -7 1 -13 5 -13 10 0 4 -8 8 -18 8 -10 0 -46 11
-80 24 -34 14 -62 21 -62 18 0 -4 -5 1 -11 10 -5 10 -16 15 -24 12 -8 -4 -15
-1 -15 5 0 6 -5 11 -12 11 -16 0 -101 41 -109 53 -3 5 -9 8 -13 7 -11 -2 -66
24 -66 32 0 5 -7 8 -15 8 -8 0 -15 5 -15 10 0 6 -5 10 -12 10 -6 0 -26 11 -45
26 -18 14 -33 22 -33 19 0 -3 -10 3 -22 15 -12 11 -28 20 -37 20 -8 0 -11 3
-8 7 4 3 -10 17 -30 31 -87 60 -203 167 -303 281 -30 35 -59 69 -65 75 -27 31
-97 130 -143 203 -56 88 -172 322 -172 345 0 8 -3 18 -7 22 -4 3 -8 16 -10 27
-2 11 -10 33 -18 50 -9 16 -13 29 -9 29 4 0 1 7 -6 15 -6 8 -9 19 -5 25 3 5 2
10 -2 10 -8 0 -13 19 -16 63 -1 9 -5 17 -10 17 -4 0 -6 4 -3 9 4 5 2 20 -3 33
-5 12 -11 41 -15 63 -3 22 -8 51 -11 65 -7 35 -18 146 -19 202 -1 27 -5 48
-10 48 -6 0 -6 4 0 10 6 6 8 33 4 65 -3 31 -4 58 -1 60 4 4 8 60 14 187 1 21
7 38 12 38 6 0 3 5 -5 10 -9 6 -10 10 -3 10 6 0 12 8 11 18 0 20 18 127 22
127 1 0 4 13 6 30 3 16 8 32 12 35 4 3 7 14 7 25 -1 19 57 192 85 260 7 17 13
33 12 38 -1 4 2 7 8 7 6 0 9 3 9 8 -3 12 23 72 30 72 4 0 8 6 8 13 0 25 165
285 212 335 l22 22 -23 23 c-25 26 -135 148 -166 185 -11 12 -21 22 -24 22 -3
0 -21 -18 -41 -40z"/>
<path d="M4140 3264 c-19 -18 -36 -32 -38 -30 -1 2 -18 -10 -37 -27 -20 -17
-31 -33 -27 -36 9 -6 26 -60 24 -73 -1 -5 3 -8 8 -8 6 0 10 -6 9 -12 -1 -7 3
-26 9 -41 7 -16 12 -33 12 -38 0 -5 5 -9 11 -9 8 0 8 -4 1 -13 -9 -10 -8 -19
2 -33 8 -11 13 -34 12 -51 -1 -18 2 -30 6 -27 4 3 8 -1 8 -10 0 -8 -6 -17 -12
-19 -7 -3 -4 -6 7 -6 17 -1 17 -3 5 -11 -12 -8 -12 -10 -1 -10 9 0 12 -9 9
-30 -3 -16 -1 -30 3 -30 4 0 6 -8 5 -17 -2 -10 1 -30 5 -46 4 -15 4 -25 -1
-22 -9 6 -8 -34 2 -50 3 -6 6 -25 6 -43 0 -22 -3 -30 -11 -25 -7 4 -6 0 2 -10
8 -10 10 -24 6 -34 -12 -28 -14 -44 -5 -38 5 3 7 -7 5 -22 -2 -16 -4 -28 -5
-28 -1 0 -3 -27 -5 -60 -2 -33 -7 -71 -10 -85 -6 -22 -12 -59 -19 -112 -1 -10
-5 -21 -9 -24 -4 -4 -7 -17 -7 -29 0 -12 -3 -25 -7 -29 -4 -3 -8 -13 -9 -21
-1 -7 -8 -31 -15 -52 -7 -21 -12 -41 -11 -45 1 -5 -3 -8 -8 -8 -6 0 -10 -8
-10 -18 0 -10 -7 -28 -16 -40 -8 -12 -13 -22 -10 -22 2 0 -6 -19 -19 -42 -13
-24 -38 -71 -56 -106 -18 -34 -42 -74 -55 -87 -12 -13 -19 -26 -17 -29 3 -3
-2 -8 -11 -12 -9 -3 -16 -12 -16 -20 0 -8 -5 -14 -12 -14 -6 0 -9 -2 -6 -5 14
-15 -263 -295 -291 -295 -6 0 -11 -3 -11 -7 0 -5 -14 -17 -30 -28 -27 -18 -41
-45 -22 -45 4 0 26 -17 49 -38 22 -20 52 -47 66 -59 l25 -21 34 24 c136 101
277 248 390 409 40 57 49 71 81 128 6 12 14 24 17 27 13 13 94 192 115 255 10
28 20 57 23 65 7 19 6 17 20 65 6 22 13 51 16 65 2 14 5 25 7 25 1 0 3 9 5 20
1 11 6 34 9 50 4 17 8 46 10 65 2 19 4 35 5 35 6 0 12 133 12 255 -1 152 -5
208 -22 300 -6 30 -12 64 -13 75 -1 11 -6 26 -10 33 -5 6 -6 12 -3 12 2 0 0
15 -5 33 -6 17 -12 41 -15 52 -7 28 -10 38 -17 58 -4 9 -10 25 -14 35 -3 9 -8
26 -10 37 -2 11 -8 24 -13 29 -6 6 -10 21 -10 34 0 13 -4 20 -10 17 -5 -3 -10
3 -10 14 0 31 -29 25 -70 -15z"/>
<path d="M4515 3040 c-4 -6 -11 -8 -16 -5 -5 4 -9 2 -9 -4 0 -9 -12 -14 -60
-27 -3 0 -22 -8 -42 -18 -36 -15 -44 -27 -38 -51 2 -5 2 -18 2 -27 0 -10 2
-18 6 -18 7 0 11 -26 15 -112 1 -27 5 -48 8 -48 7 0 8 -21 8 -185 1 -141 -1
-175 -8 -175 -4 0 -6 -21 -6 -47 0 -44 -5 -80 -21 -173 -4 -19 -9 -39 -12 -45
-3 -5 -7 -16 -8 -25 -1 -8 -7 -29 -12 -47 -6 -17 -8 -34 -4 -37 3 -3 -1 -6 -8
-6 -7 0 -11 -3 -8 -6 4 -3 0 -21 -8 -40 -8 -19 -15 -37 -15 -41 -2 -11 -15
-46 -39 -101 -37 -82 -44 -97 -59 -114 -8 -10 -11 -18 -7 -18 4 0 -9 -25 -29
-55 -19 -31 -35 -58 -35 -61 0 -3 -20 -33 -45 -65 -25 -33 -45 -64 -45 -69 0
-6 -4 -10 -8 -10 -5 0 -23 -19 -40 -42 -49 -68 -240 -258 -259 -258 -4 0 -14
-9 -21 -20 -7 -12 -17 -18 -22 -15 -6 3 -10 2 -10 -3 0 -5 -24 -24 -52 -42
-29 -19 -55 -37 -58 -40 -3 -4 -29 -20 -57 -36 -29 -16 -53 -33 -53 -37 0 -5
-5 -5 -11 -2 -6 4 -17 -1 -24 -11 -8 -11 -15 -16 -15 -12 0 4 -25 -6 -56 -23
-31 -16 -62 -29 -70 -29 -8 0 -14 -5 -14 -11 0 -6 -7 -9 -15 -5 -8 3 -15 1
-15 -5 0 -6 -4 -7 -10 -4 -5 3 -10 1 -10 -5 0 -6 -5 -8 -10 -5 -6 4 -16 2 -23
-3 -15 -11 -67 -26 -84 -23 -7 1 -13 -2 -13 -7 0 -5 -6 -9 -12 -10 -21 -1 -42
-7 -53 -13 -5 -4 -18 -5 -27 -4 -10 2 -18 0 -18 -5 0 -4 -9 -6 -20 -3 -11 3
-20 1 -20 -4 0 -5 -13 -9 -30 -8 -16 1 -30 -1 -30 -4 0 -4 -15 -7 -32 -8 -65
-2 -93 -7 -105 -16 -9 -6 -13 -5 -13 2 0 8 -8 10 -22 5 -27 -9 -318 -12 -318
-3 0 3 -21 6 -46 8 -26 1 -88 11 -138 22 -50 11 -100 21 -111 22 -11 1 -22 4
-25 7 -8 8 -75 30 -93 30 -9 0 -17 4 -17 8 0 5 -22 14 -50 21 -27 7 -50 17
-50 23 0 5 -4 7 -9 3 -5 -3 -12 -1 -16 5 -4 6 -11 8 -16 5 -5 -4 -9 -1 -9 4 0
6 -9 11 -19 11 -11 0 -21 3 -23 7 -4 11 -119 65 -125 59 -2 -2 -27 -39 -54
-82 l-49 -78 28 -18 c43 -29 232 -118 261 -124 8 -1 17 -8 21 -14 4 -6 11 -10
16 -8 7 2 112 -27 174 -50 19 -7 18 -7 60 -15 19 -4 46 -10 60 -13 14 -3 40
-7 57 -8 18 0 33 -3 33 -6 0 -6 38 -11 105 -14 22 -1 46 -5 53 -9 7 -5 12 -3
12 5 0 10 2 10 8 1 9 -14 342 -16 342 -2 0 4 9 6 21 4 11 -2 44 0 72 5 29 5
69 12 89 14 21 2 41 7 45 9 5 3 28 8 53 12 25 4 49 10 55 13 5 4 13 7 18 8 4
1 8 2 10 4 2 2 39 9 65 12 6 1 12 6 12 11 0 5 9 7 20 4 10 -3 20 -1 22 5 2 5
10 10 18 12 8 2 31 9 50 17 19 7 38 12 43 11 4 -1 7 2 7 8 0 5 9 10 20 10 11
0 20 5 20 10 0 6 12 10 26 10 17 0 23 4 18 12 -5 8 -2 9 9 5 9 -3 19 -2 22 4
4 5 25 19 48 30 23 12 52 27 64 33 13 6 23 14 23 19 0 4 7 7 15 7 8 0 24 9 35
20 11 11 23 21 28 22 17 4 62 34 62 41 0 4 5 7 10 7 6 0 22 10 36 23 56 51 64
57 64 52 0 -6 90 77 160 147 26 26 45 50 42 53 -3 3 3 5 13 5 10 0 16 3 12 6
-3 3 5 17 19 31 13 13 24 29 24 35 0 6 3 9 6 5 7 -6 38 35 130 171 60 91 178
311 170 319 -3 3 2 12 10 20 8 8 12 19 9 24 -4 5 -3 9 2 9 7 0 27 47 36 85 1
6 6 16 10 23 5 6 5 12 1 12 -3 0 -1 7 6 15 7 8 9 15 6 15 -4 0 -1 10 6 23 7
12 11 25 10 29 -1 4 5 35 14 70 17 67 22 91 29 153 3 22 8 51 12 65 5 24 10
77 15 168 1 23 7 42 13 42 5 0 4 4 -4 9 -9 6 -10 11 -2 15 6 4 9 12 5 17 -3 5
-8 47 -10 92 -5 82 -8 119 -19 212 -5 51 -12 90 -15 90 -1 0 -4 14 -6 30 -7
42 -24 105 -29 105 -2 0 -7 -5 -10 -10z"/>
</g>
</svg>
